<?xml version="1.0" standalone="no"?>
<!DOCTYPE svg PUBLIC "-//W3C//DTD SVG 20010904//EN"
 "http://www.w3.org/TR/2001/REC-SVG-20010904/DTD/svg10.dtd">
<svg version="1.0" xmlns="http://www.w3.org/2000/svg"
 width="260.000000pt" height="280.000000pt" viewBox="0 0 260.000000 280.000000"
 preserveAspectRatio="xMidYMid meet">
<metadata>
Created by potrace 1.16, written by Peter Selinger 2001-2019
</metadata>
<g transform="translate(0.000000,280.000000) scale(0.100000,-0.100000)"
fill="#000000" stroke="none">
<path d="M1395 2076 c-49 -17 -101 -25 -175 -28 -129 -6 -224 -37 -322 -103
-94 -65 -138 -116 -138 -161 0 -31 9 -45 68 -103 78 -79 172 -129 302 -163 71
-18 93 -29 135 -66 63 -57 117 -82 178 -82 57 0 69 17 38 56 -12 15 -21 38
-21 51 0 22 3 24 33 18 98 -20 147 -59 147 -119 0 -51 -37 -79 -111 -84 -74
-6 -82 -19 -39 -69 41 -46 60 -91 60 -143 0 -42 -27 -107 -54 -129 -19 -16
-21 -51 -3 -51 27 0 133 78 190 139 211 229 210 587 -4 817 -32 35 -59 66 -59
69 0 16 25 53 54 78 l31 27 -23 20 c-31 26 -114 50 -171 50 -25 0 -77 -11
-116 -24z m18 -97 c187 -63 332 -224 372 -417 38 -179 -12 -364 -134 -494
l-57 -61 0 64 c1 52 -4 75 -26 118 -16 29 -28 55 -28 57 0 2 9 4 21 4 36 0 89
32 106 63 25 49 13 121 -28 163 -49 50 -106 64 -273 64 -78 0 -159 4 -181 8
l-40 8 44 23 c64 33 138 106 156 155 10 25 15 63 13 96 -3 47 -6 55 -23 55
-18 0 -20 -6 -17 -46 8 -108 -74 -201 -220 -248 -35 -12 -42 -10 -118 29 -82
43 -180 134 -180 168 0 28 107 120 183 157 40 19 101 42 137 50 83 19 210 12
293 -16z"/>
<path d="M1055 1898 c-32 -17 -45 -39 -45 -79 0 -29 6 -42 26 -58 55 -43 134
-11 134 54 0 47 -8 64 -41 80 -33 18 -47 18 -74 3z"/>
</g>
</svg>
